<svg xmlns="http://www.w3.org/2000/svg" width="30" height="30" viewBox="0 0 30 30">
    <g opacity=".135">
        <path d="M26.391 20.736c4.737-4.737 4.737-12.446 0-17.183s-12.446-4.737-17.183 0C5.19 7.573 4.58 13.549 7.38 18.217c0 0 .202.337-.07.609l-6.2 6.199c-1.233 1.234-1.527 2.959-.433 4.053l.189.188c1.094 1.095 2.82.801 4.053-.433l6.186-6.186c.285-.284.622-.083.622-.083 4.668 2.8 10.645 2.191 14.664-1.828zm-14.94-2.243c-3.5-3.5-3.5-9.196 0-12.697 3.5-3.5 9.196-3.5 12.697 0 3.5 3.5 3.5 9.196 0 12.697-3.5 3.5-9.196 3.5-12.697 0z" transform="matrix(-1 0 0 1 30 0)"/>
        <path d="M12.227 11.424c-.163 0-.329-.032-.489-.1-.637-.27-.936-1.006-.666-1.643C12.77 5.67 17.41 3.79 21.42 5.487c.638.27.936 1.005.666 1.643-.27.638-1.005.936-1.643.666-2.736-1.157-5.903.127-7.06 2.862-.202.478-.667.766-1.155.766z" transform="matrix(-1 0 0 1 30 0)"/>
    </g>
</svg>
